<mxfile host="app.diagrams.net" agent="Mozilla/5.0 (Windows NT 10.0; Win64; x64) AppleWebKit/537.36 (KHTML, like Gecko) Chrome/140.0.0.0 Safari/537.36" version="28.2.5">
  <diagram name="Page-1" id="DcQEHb6l60PTov6sgQnV">
    <mxGraphModel dx="872" dy="473" grid="1" gridSize="10" guides="1" tooltips="1" connect="1" arrows="1" fold="1" page="1" pageScale="1" pageWidth="850" pageHeight="1100" math="0" shadow="0">
      <root>
        <mxCell id="0" />
        <mxCell id="1" parent="0" />
        <mxCell id="TQeUSc2ovYzdRX_TtYpK-1" value="Resume" style="rounded=0;whiteSpace=wrap;html=1;" vertex="1" parent="1">
          <mxGeometry x="80" y="140" width="240" height="40" as="geometry" />
        </mxCell>
        <mxCell id="TQeUSc2ovYzdRX_TtYpK-2" value="-personal_information : PersonClass&lt;div&gt;-education : EducationClass&lt;/div&gt;&lt;div&gt;-skills : SkillClass&lt;/div&gt;&lt;div&gt;-hobbies : HobbiesClass&lt;/div&gt;&lt;div&gt;-referance : ReferenceClass&lt;/div&gt;" style="rounded=0;whiteSpace=wrap;html=1;align=left;" vertex="1" parent="1">
          <mxGeometry x="80" y="180" width="240" height="120" as="geometry" />
        </mxCell>
        <mxCell id="TQeUSc2ovYzdRX_TtYpK-3" value="+printPersonal_information(): void&lt;div&gt;+printEducation(): void&lt;/div&gt;&lt;div&gt;+printSkills(): void&lt;/div&gt;&lt;div&gt;+printHobbies(): void&lt;/div&gt;&lt;div&gt;+printReference(): void&lt;/div&gt;" style="rounded=0;whiteSpace=wrap;html=1;align=left;" vertex="1" parent="1">
          <mxGeometry x="80" y="300" width="240" height="120" as="geometry" />
        </mxCell>
        <mxCell id="TQeUSc2ovYzdRX_TtYpK-4" value="PersonClass" style="rounded=0;whiteSpace=wrap;html=1;" vertex="1" parent="1">
          <mxGeometry x="510" y="140" width="190" height="40" as="geometry" />
        </mxCell>
        <mxCell id="TQeUSc2ovYzdRX_TtYpK-5" value="-name: String&lt;div&gt;-age: int&lt;/div&gt;&lt;div&gt;-address: String&lt;/div&gt;&lt;div&gt;-district: String&lt;/div&gt;&lt;div&gt;-phone: String&lt;/div&gt;" style="rounded=0;whiteSpace=wrap;html=1;align=left;" vertex="1" parent="1">
          <mxGeometry x="510" y="180" width="190" height="120" as="geometry" />
        </mxCell>
        <mxCell id="TQeUSc2ovYzdRX_TtYpK-6" value="+getName(): String&lt;div&gt;+getAge(): int&lt;/div&gt;&lt;div&gt;+getAddress(): String&lt;/div&gt;&lt;div&gt;+getDistrict(): String&lt;/div&gt;&lt;div&gt;+getPhone(): String&lt;/div&gt;" style="rounded=0;whiteSpace=wrap;html=1;align=left;" vertex="1" parent="1">
          <mxGeometry x="510" y="300" width="190" height="90" as="geometry" />
        </mxCell>
      </root>
    </mxGraphModel>
  </diagram>
</mxfile>
